<svg width="41" height="31" viewBox="0 0 41 31" fill="none" xmlns="http://www.w3.org/2000/svg">
<path d="M29.5939 11.0775C29.4855 10.0862 28.9435 7.27776 27.155 4.63449H11.3833C10.0825 6.28654 7.48098 9.92105 7.48098 15.7032C7.48098 18.1813 8.78175 22.9722 18.0497 23.3026C20.5788 23.3928 27.155 23.1705 29.2687 20.1637C30.8947 17.8509 32.2496 17.2451 33.3336 15.7032C34.4176 14.1613 35.4473 12.3991 36.2603 10.2515C36.5824 9.40068 37.7887 7.01345 38.0489 6.61696C39.187 5.13012 40 5.29532 40 4.13889C37.8863 3.47808 36.7481 4.43624 35.4473 5.62572C34.0382 7.2227 32.6832 9.92104 29.5939 11.0775Z" fill="#5D5D5D" stroke="#5D5D5D" stroke-width="0.5"/>
<path d="M27.1751 4.56444C30.9148 2.91239 25.3865 1.59075 24.2483 1.42555C20.0207 0.811923 17.4191 0.906338 13.8419 1.42555C12.7038 1.59075 7.338 2.91239 11.0778 4.56444C9.75685 5.62573 8.78126 6.78217 11.8706 4.96491C12.6836 5.24026 14.3747 5.7579 14.6348 5.62573L15.1426 5.46053C15.3406 5.48832 15.6003 5.54056 15.9356 5.62573C16.8593 5.86036 16.7991 5.76177 16.6866 5.62573L17.0738 5.29532C17.5244 5.44793 18.6142 5.39791 19.5373 5.29532L20.0006 5.79094C19.838 5.95614 20.0006 6.12135 20.651 6.28655C21.3014 6.45176 23.7403 5.13012 24.0655 5.13012C24.3365 5.29532 25.0411 5.65877 25.6915 5.79094C26.1793 5.79094 25.4994 5.13012 26.1793 5.46053C29.9191 7.27778 28.9435 6.28655 27.1751 4.56444Z" fill="white"/>
<path d="M27.1751 4.56444C30.9148 2.91239 25.3865 1.59075 24.2483 1.42555C20.0207 0.811923 17.4191 0.906338 13.8419 1.42555C12.7038 1.59075 7.33799 2.91239 11.0778 4.56444M27.1751 4.56444C14.2972 4.6966 11.5455 4.77104 11.0778 4.56444M27.1751 4.56444C28.9435 6.28655 29.9191 7.27778 26.1793 5.46053C25.4994 5.13012 26.1793 5.79094 25.6915 5.79094C25.0411 5.65877 24.3365 5.29532 24.0655 5.13012C23.7403 5.13012 21.3014 6.45176 20.651 6.28655C20.0006 6.12135 19.838 5.95614 20.0006 5.79094M11.0778 4.56444C9.75685 5.62573 8.78126 6.78217 11.8706 4.96491C12.6836 5.24026 14.3747 5.7579 14.6348 5.62573M20.0006 5.79094C20.8136 5.62573 21.464 4.96491 20.651 5.13012C20.3742 5.18635 19.9745 5.24674 19.5373 5.29532M20.0006 5.79094L19.5373 5.29532M17.0738 5.29532C16.586 5.13012 16.586 5.29532 16.586 5.46053C16.586 5.50842 16.6407 5.5702 16.6866 5.62573M17.0738 5.29532C17.5244 5.44793 18.6142 5.39791 19.5373 5.29532M17.0738 5.29532L16.6866 5.62573M14.6348 5.62573C14.5141 5.50311 14.5726 5.38049 15.1426 5.46053M14.6348 5.62573L15.1426 5.46053M16.6866 5.62573C16.7991 5.76177 16.8593 5.86036 15.9356 5.62573C15.6003 5.54056 15.3406 5.48832 15.1426 5.46053" stroke="#905E53" stroke-width="0.3"/>
<path d="M10.4073 4.13892H27.8054L27.3176 4.63453H10.8951L10.4073 4.13892Z" fill="#7C6E47" stroke="#905E53" stroke-width="0.5"/>
<path d="M24.1011 24.8164C25.6787 23.2862 25.3928 21.1619 25.0527 20.291L16.776 19.1604C17.0857 21.8214 16.3509 22.9818 15.5486 23.6481C14.9611 23.1799 13.6033 21.5784 12.8713 18.918L9.61194 20.9459L8.39378 18.7428C6.98506 19.1323 7.27005 19.9956 7.58864 20.3786L6.44285 20.513L6.22687 19.8269C6.12563 19.1894 6.25295 18.3746 7.11992 17.8413C8.3586 17.0795 10.0196 17.2676 10.95 17.6371C11.8804 18.0067 11.6538 19.5372 11.7044 19.195C11.7889 18.6246 10.7633 13.8291 10.2237 11.1367C8.53598 10.1788 6.69851 10.4224 4.86638 12.1507L5.77285 18.3847L1.33892 19.8158C0.881727 21.3827 1.43275 22.3503 1.76541 22.6382L3.62203 22.4554L3.00691 22.8078C2.42247 24.4737 2.83657 26.8095 3.11668 27.7692C4.14658 27.7837 6.39175 27.7014 7.13326 27.2557C7.43765 27.5159 7.80777 27.8185 8.26284 28.1812L10.1293 26.9813C11.6889 26.9034 11.4975 26.2953 11.8156 26.0478C12.3847 25.6051 14.3925 24.1691 15.5486 23.6481L15.7611 24.1136L24.1011 24.8164Z" fill="#7C4624"/>
<path d="M15.5486 23.6481C16.3509 22.9818 17.0857 21.8214 16.776 19.1604L25.0527 20.291C25.3928 21.1619 25.6787 23.2862 24.1011 24.8164L15.7611 24.1136L15.5486 23.6481ZM15.5486 23.6481C14.3925 24.1691 12.3847 25.6051 11.8156 26.0478C11.4975 26.2953 11.6889 26.9034 10.1293 26.9813L8.26284 28.1812C7.80777 27.8185 7.43765 27.5159 7.13326 27.2557M15.5486 23.6481C14.9611 23.1799 13.6033 21.5784 12.8713 18.918L9.61194 20.9459M7.13326 27.2557C6.2589 26.5085 5.92706 26.1115 5.68273 25.6465C5.35336 25.0196 5.87276 24.3631 5.50116 24.0214L5.58562 23.451L8.37589 21.7149M7.13326 27.2557C6.39175 27.7014 4.14658 27.7837 3.11668 27.7692C2.83657 26.8095 2.42247 24.4737 3.00691 22.8078L3.62203 22.4554M3.62203 22.4554L8.37589 21.7149M3.62203 22.4554L1.76541 22.6382C1.43275 22.3503 0.881727 21.3827 1.33892 19.8158L5.77285 18.3847M8.37589 21.7149L9.61194 20.9459M5.77285 18.3847L6.44285 20.513M5.77285 18.3847L4.86638 12.1507C6.69851 10.4224 8.53598 10.1788 10.2237 11.1367C10.7633 13.8291 11.7889 18.6246 11.7044 19.195C11.6538 19.5372 11.8804 18.0067 10.95 17.6371C10.0196 17.2676 8.3586 17.0795 7.11992 17.8413C5.88123 18.6032 6.15242 19.9399 6.44285 20.513M6.44285 20.513L7.58864 20.3786C7.27005 19.9956 6.98506 19.1323 8.39379 18.7428L9.61194 20.9459" stroke="#905E53" stroke-width="0.5"/>
<path d="M16.047 23.1343L15.5487 23.6482C14.9012 23.2688 12.7026 20.0588 12.8715 18.918L13.3064 18.832C14.2002 22.3001 15.4915 22.7675 16.047 23.1343Z" fill="#5B3623" stroke="#905E53" stroke-width="0.5"/>
<path d="M10.6124 19.9188L11.8426 19.214C11.6512 18.6059 11.8102 18.4821 11.0881 17.6561C10.4151 16.8861 8.9593 16.8935 7.8943 17.3653C7.14124 17.6989 6.46278 18.4791 6.26149 18.888C6.10046 19.2152 6.31544 20.1077 6.44306 20.5131L7.72679 20.3975C7.3763 19.9132 7.43964 19.4854 7.64093 19.0765C7.84222 18.6675 8.85006 18.5142 10.0916 18.6838C11.0848 18.8195 10.8526 19.5637 10.6124 19.9188Z" fill="#5B3623" stroke="#905E53" stroke-width="0.5"/>
<path d="M15.3661 22.9511L16.7075 19.9283L18.7786 18.7466L20.7828 15.8446L22.3627 14.9075L22.7474 14.8663L23.0076 17.1416L23.3884 14.7975L24.5857 15.053L25.7 16.8529L26.5994 17.9081L27.6053 18.7599L28.7196 20.5597L29.9424 23.3076L30.8437 25.5142L30.8693 28.0066L28.9442 27.0614L27.5754 26.4404L26.889 24.9785L25.4315 22.4477L25.3505 25.1435L24.6897 26.174L23.9402 25.2947L23.4471 24.3879L23.0351 20.7854L22.3781 24.1187L20.439 27.5894L19.7546 27.2789L19.5811 25.7621L20.0053 23.7973L20.6227 22.3875L20.7452 18.9196L17.9775 25.3582L17.3365 25.4269L16.6323 26.0782L16.7369 24.7235L18.5025 19.7359L16.0072 22.8824L15.3661 22.9511Z" fill="#F2E2A7"/>
<path d="M18.7786 18.7466L16.7075 19.9283L15.3661 22.9511L16.0072 22.8824L18.5025 19.7359M18.7786 18.7466L18.5025 19.7359M18.7786 18.7466L20.7828 15.8446L22.3627 14.9075M18.5025 19.7359L16.7369 24.7235L16.6323 26.0782L17.3365 25.4269L17.9775 25.3582L20.7452 18.9196M20.7452 18.9196L20.6227 22.3875L20.0053 23.7973L19.5811 25.7621L19.7546 27.2789L20.439 27.5894L22.3781 24.1187L23.0351 20.7854M20.7452 18.9196L21.5539 16.9136M22.3627 14.9075L21.5539 16.9136M22.3627 14.9075L22.0668 16.8586M22.3627 14.9075L22.7474 14.8663L23.0076 17.1416M21.5539 16.9136L22.0668 16.8586M23.0076 17.1416L22.5796 16.8036L22.0668 16.8586M23.0076 17.1416L23.1811 18.6584L22.8616 19.2685L23.0351 20.7854M23.0076 17.1416L23.3884 14.7975M23.0351 20.7854L23.4471 24.3879L23.9402 25.2947L24.6897 26.174L25.3505 25.1435L25.4315 22.4477M23.3884 14.7975L23.8598 15.5147L24.3745 16.6111L25.4315 22.4477M23.3884 14.7975L24.5857 15.053L25.7 16.8529L26.5994 17.9081L27.6053 18.7599L28.7196 20.5597L29.9424 23.3076L30.8437 25.5142L30.8693 28.0066L28.9442 27.0614L27.5754 26.4404L26.889 24.9785L25.4315 22.4477" stroke="#905E53" stroke-width="0.5"/>
<path d="M14.1236 21.165L12.6502 21.8988L16.0646 18.8457L20.8893 15.6413L22.5975 14.6904L22.8795 17.1553L22.6438 16.7967L21.9386 16.8723L20.3427 21.074L19.1532 25.4241L19.0703 26.9685L19.157 27.7269L20.0564 28.7821L20.6974 28.7133L20.5673 27.5757L22.3998 24.3083L22.9503 21.1783L23.319 24.4017L24.0685 25.281L24.5615 26.1878L25.1267 25.4554L25.6375 22.8095L26.9857 25.2561L27.5754 26.4404L29.2224 27.2235L30.891 28.1962L30.8438 25.5142L31.2935 26.0418L30.891 28.1962L29.9935 28.2924L28.7529 27.6577L27.5754 26.4404L26.9857 25.2561L25.6375 22.8095L25.8889 27.5809L25.6147 29.7216L24.2892 29.4798L23.7933 26.8459L23.319 24.4017L22.9146 25.4047L22.1906 27.0178L21.593 27.4657L20.6974 28.7133L20.0564 28.7821L19.157 27.7269L19.0703 26.9685L19.1532 25.4241L18.3246 28.3919L17.3009 29.6533L15.9796 29.4483L16.2507 26.7545L16.7172 25.6853L17.9342 24.979L22.5975 14.6904L20.8893 15.6413L18.8852 18.5432L16.0665 19.997L14.1236 21.165Z" fill="#905E53"/>
<path d="M13.4705 26.8011L15.1372 26.6224L16.6521 25.1165L17.098 23.3413L18.4384 19.7427L16.0289 23.072L15.2597 23.1545L13.9381 25.2155L13.4705 26.8011Z" fill="#905E53"/>
<path d="M25.8499 17.0288L31.5403 20.2573L28.7197 20.5597L27.6053 18.7599L26.6062 17.9669L25.8499 17.0288Z" fill="#905E53"/>
<path d="M29.5776 22.3871L32.1023 24.0357L30.4355 24.2144L29.5776 22.3871Z" fill="#905E53"/>
<path d="M20.8893 15.6413L16.0646 18.8457L12.6502 21.8988L14.1236 21.165L16.0665 19.997L18.8852 18.5432L20.8893 15.6413ZM20.8893 15.6413L22.5975 14.6904M19.1532 25.4241L18.3246 28.3919L17.3009 29.6533L15.9796 29.4483L16.2507 26.7545L16.7172 25.6853L17.9342 24.979L22.5975 14.6904M19.1532 25.4241L20.3427 21.074L21.9386 16.8723M19.1532 25.4241L19.0703 26.9685L19.157 27.7269L20.0564 28.7821L20.6974 28.7133M23.319 24.4017L22.9146 25.4047L22.1906 27.0178L21.593 27.4657L20.6974 28.7133M23.319 24.4017L22.9503 21.1783L22.3998 24.3083L20.5673 27.5757L20.6974 28.7133M23.319 24.4017L23.7933 26.8459L24.2892 29.4798L25.6147 29.7216L25.8889 27.5809L25.6375 22.8095M23.319 24.4017L24.0685 25.281L24.5615 26.1878L25.1267 25.4554L25.6375 22.8095M25.6375 22.8095L26.9857 25.2561L27.5754 26.4404M22.5975 14.6904L21.9386 16.8723M22.5975 14.6904L22.8795 17.1553L22.6438 16.7967L21.9386 16.8723M27.5754 26.4404L29.2224 27.2235L30.891 28.1962M27.5754 26.4404L28.7529 27.6577L29.9935 28.2924L30.891 28.1962M30.891 28.1962L31.2935 26.0418L30.8438 25.5142L30.891 28.1962ZM17.098 23.3413L18.4384 19.7427L16.0289 23.072L15.2597 23.1545L13.9381 25.2155L13.4705 26.8011L15.1372 26.6224L16.6521 25.1165L17.098 23.3413ZM31.5403 20.2573L25.8499 17.0288L26.6062 17.9669L27.6053 18.7599L28.7197 20.5597L31.5403 20.2573ZM32.1023 24.0357L29.5776 22.3871L30.4355 24.2144L32.1023 24.0357Z" stroke="#905E53" stroke-width="0.5"/>
<path d="M20.5476 28.5375L20.4392 27.5894L19.7548 27.2789L19.5813 25.7621L20.0054 23.7973L21.4316 20.3815L21.7257 17.279L19.1316 25.2345L19.1571 27.7269L20.0348 28.5924L20.5476 28.5375Z" fill="#F4D595"/>
<path d="M21.7257 17.279L19.1316 25.2345L19.1571 27.7269L20.0348 28.5924L20.5476 28.5375L20.4392 27.5894L19.7548 27.2789L19.5813 25.7621L20.0054 23.7973L21.4316 20.3815L21.7257 17.279ZM21.7257 17.279L22.1951 16.8448L22.5798 16.8036L22.8795 17.1553" stroke="#905E53" stroke-width="0.5"/>
<path d="M18.988 15.8717L15.8461 19.1206L22.6007 14.6901L18.988 15.8717Z" fill="#F4D595" stroke="#905E53" stroke-width="0.5"/>
<path d="M29.7978 20.2721L26.1693 17.2195L31.1862 20.1232L29.7978 20.2721Z" fill="#F4D595" stroke="#905E53" stroke-width="0.5"/>
<path d="M30.1868 23.6719L29.8357 22.6506L31.8664 24.0213L30.1868 23.6719Z" fill="#F4D595" stroke="#905E53" stroke-width="0.5"/>
<path d="M19.2688 19.3083C18.2908 20.8334 18.194 22.1935 17.5054 24.0423L18.9884 21.8949L20.7197 16.8802L19.2688 19.3083Z" fill="#E2CCA5" stroke="#E3D08E" stroke-width="0.5"/>
<path d="M25.5272 21.9838L26.643 23.6045C26.8517 23.7787 26.8288 23.665 27.5636 25.3119L28.0823 25.7507L29.2013 26.2576L29.5823 26.2313L29.4735 25.1071C28.6571 22.617 28.1128 20.957 26.235 19.3887C25.8177 19.0403 25.3478 18.1484 25.2825 17.4739L25.0647 17.2059L24.7109 17.5132" stroke="#E3D08E" stroke-width="0.5"/>
<path d="M24.4968 24.713C23.9246 24.2871 23.735 23.0903 23.5745 21.6872C23.4467 20.5704 23.39 19.6296 23.4432 18.8607C23.4837 18.2772 23.5019 17.2336 23.7878 16.8353C24.1673 16.7946 24.3278 18.1976 24.6167 20.7231L24.6167 20.7233C24.7451 21.8458 25.288 25.3018 24.4968 24.713Z" stroke="#E3D08E" stroke-width="0.5"/>
<path d="M22.0216 19.8653C21.4854 20.775 20.2881 23.5167 20.4187 26.0025L21.9952 22.9928L22.7514 21.2074C22.8351 20.8197 22.9062 19.2024 22.0216 19.8653Z" stroke="#E3D08E" stroke-width="0.5"/>
<path d="M15.7949 22.5214C16.6029 21.5258 17.8151 20.0323 18.1304 19.4304" stroke="#E3D08E" stroke-width="0.5"/>
</svg>
